<svg xmlns="http://www.w3.org/2000/svg" width="28" height="32" viewBox="0 0 28 32" fill="none" stroke="currentColor" stroke-width="2" stroke-linecap="round" stroke-linejoin="round" class="feather feather-cloud-drizzle">
  <rect x1="4" y1="4" x="28" y2="28" fill="none"></rect>
  <g x="4" y="4">
    <line x1="11" y1="25" x2="11" y2="27" stroke="currentColor"></line>
    <line x1="11" y1="19" x2="11" y2="21" stroke="currentColor"></line>
    <line x1="19" y1="25" x2="19" y2="27" stroke="currentColor"></line>
    <line x1="19" y1="19" x2="19" y2="21" stroke="currentColor"></line>
    <line x1="15" y1="27" x2="15" y2="29" stroke="currentColor"></line>
    <line x1="15" y1="23" x2="15" y2="23" stroke="currentColor"></line>
    <!-- <path d="M20 16.58A5 5 0 0 0 18 7h-1.26A8 8 0 1 0 4 15.25"></path> -->
    <path xmlns="http://www.w3.org/2000/svg" id="svg_7" d="m23.005892,23.579712a5,5 0 0 0 -2,-9.58l-1.26,0a8,8 0 1 0 -12.74,8.25"/>
  </g>
</svg>